<svg xmlns="http://www.w3.org/2000/svg" xmlns:xlink="http://www.w3.org/1999/xlink" fill="none" version="1.1" width="741.9404296875" height="34.2822265625" viewBox="0 0 741.9404296875 34.2822265625"><g><path d="M1.49414,27.5254L14.0449,27.5254L14.0449,23.541L4.15039,23.541L4.15039,19.291L14.0449,19.291L14.0449,15.9375L7.63672,15.9375L7.63672,13.3145Q5.44531,14.875,2.95508,16.3691Q1.99219,15.0078,0,12.4844Q10.625,6.77344,14.4102,0.265625L20.2207,0.265625L19.3574,1.52734Q23.6406,7.66992,33.0703,12.0859Q31.3105,14.2773,30.082,16.0039Q27.5918,14.6758,25.4336,13.2148L25.4336,15.9375L18.9922,15.9375L18.9922,19.291L28.9863,19.291L28.9863,23.541L18.9922,23.541L18.9922,27.5254L31.5762,27.5254L31.5762,31.7754L1.49414,31.7754L1.49414,27.5254ZM16.5352,5.04688Q13.8125,8.5,9.76172,11.6875L23.3086,11.6875Q19.3242,8.63281,16.5352,5.04688ZM35.4277,32.7383L35.4277,1.52734L65.6426,1.52734L65.6426,32.7051L60.8945,32.7051L60.8945,31.543L40.1758,31.543L40.1758,32.7383L35.4277,32.7383ZM60.8945,5.61133L40.1758,5.61133L40.1758,27.459L60.8945,27.459L60.8945,5.61133ZM59.0352,17.6309L56.5615,17.6309Q57.9395,18.8262,59.334,20.1875L57.5742,21.7812L59.832,21.7812L59.832,25.666L41.0723,25.666L41.0723,21.7812L47.8457,21.7812L47.8457,17.6309L41.9355,17.6309L41.9355,13.7461L47.8457,13.7461L47.8457,11.3887L41.4043,11.3887L41.4043,7.50391L59.5,7.50391L59.5,11.3887L52.2949,11.3887L52.2949,13.7461L59.0352,13.7461L59.0352,17.6309ZM53.2246,19.291L55.1504,17.6309L52.2949,17.6309L52.2949,21.7812L55.5488,21.7812Q54.2373,20.2871,53.2246,19.291ZM81.5469,14.875L91.707,14.875Q89.5156,12.8164,86.9258,10.6582L89.2666,8.36719L86.3115,8.36719Q84.6846,11.04,82.6758,13.6465Q81.1816,12.4014,79.1562,10.9736L79.1562,32.8711L74.9727,32.8711L74.9727,0.431641L79.1562,0.431641L79.1562,10.4922Q83.1904,5.72754,85.8633,0L90.1133,0.996094Q89.3994,2.70605,88.5527,4.38281L100.871,4.38281L100.871,8.36719L90.2461,8.36719Q92.6367,10.0771,95.2266,12.1855L92.7529,14.875L99.9414,14.875L99.9414,32.6719L95.8242,32.6719L95.8242,31.1113L85.6641,31.1113L85.6641,32.6719L81.5469,32.6719L81.5469,14.875ZM85.6641,27.2598L88.8848,27.2598L88.8848,18.7266L85.6641,18.7266L85.6641,27.2598ZM95.8242,18.7266L92.6035,18.7266L92.6035,27.2598L95.8242,27.2598L95.8242,18.7266ZM69.2949,3.58594L73.0801,3.58594L73.0801,29.75L69.2949,29.75L69.2949,3.58594ZM116.311,1.32812L121.656,0.0664062L123.184,3.88477L134.605,3.88477L134.605,8.06836L109.172,8.06836L109.172,15.2734Q109.172,21.6318,108.358,25.8818Q113.787,22.2295,117.722,17L110.168,17L110.168,12.9492L119.398,12.9492L119.398,8.73242L123.98,8.73242L123.98,12.9492L133.809,12.9492L133.809,17L125.358,17Q129.027,22.2793,135.236,25.5664Q133.609,27.5918,132.348,29.6836Q127.102,26.0645,123.98,20.835L123.98,32.9375L119.398,32.9375L119.398,20.752Q116.045,26.0146,110.898,29.9492Q109.886,28.5547,108.159,26.7617Q107.329,30.5967,105.785,33.0703L102.033,29.8828Q104.822,25.0352,104.789,14.6758L104.789,3.88477L117.373,3.88477Q116.809,2.47363,116.311,1.32812ZM148.783,14.7422L152.336,14.7422L152.336,6.10938L149.613,6.10938L149.613,2.125L168.141,2.125L168.141,6.10938L165.152,6.10938L165.152,14.7422L169.037,14.7422L169.037,18.7266L165.152,18.7266L165.152,32.5391L160.836,32.5391L160.836,18.7266L156.586,18.7266Q156.038,28.4717,151.24,33.1035Q149.281,31.5762,147.09,30.1484Q151.539,26.3799,152.203,18.7266L148.783,18.7266L148.783,14.7422ZM156.652,14.7422L160.836,14.7422L160.836,6.10938L156.652,6.10938L156.652,14.7422ZM148.285,6.24219L144.351,6.24219Q143.67,9.01465,142.74,11.5879L147.986,11.5879L147.986,28.9531L142.342,28.9531L142.342,30.9453L138.656,30.9453L138.656,19.9883Q138.075,20.9014,137.461,21.7812Q136.83,18.959,135.734,16.668Q138.822,12.1357,140.134,6.24219L136.863,6.24219L136.863,2.25781L148.285,2.25781L148.285,6.24219ZM144.301,25.3008L144.301,15.2402L142.342,15.2402L142.342,25.3008L144.301,25.3008ZM188.162,0.166016Q188.793,1.84277,189.291,3.38672L201.809,3.38672L201.809,10.4922L197.559,10.4922L197.559,7.37109L175.512,7.37109L175.512,10.4922L171.262,10.4922L171.262,3.38672L184.095,3.38672Q183.646,2.00879,183.182,0.697266L188.162,0.166016ZM190.553,7.4707Q196.297,10.3926,201.344,13.3477L198.787,17.2324L187.93,10.791L190.553,7.4707ZM181.92,7.50391L184.41,10.9902Q179.064,13.9785,173.52,16.5352Q172.391,14.543,171.129,12.6504Q177.139,10.3594,181.92,7.50391ZM194.902,16.8672L194.902,26.8945Q194.902,28.3887,196.264,28.3887L196.994,28.3887Q198.173,28.3887,198.463,27.5005Q198.754,26.6123,199.219,21.9473L203.203,23.209Q202.473,30.0156,201.062,31.0449Q199.65,32.0742,197.99,32.0742L194.604,32.0742Q190.387,32.0742,190.387,27.9902L190.387,20.7188L185.406,20.7188Q184.244,29.6006,173.918,33.0703Q172.822,31.2773,171.229,28.8203Q179.529,26.4131,180.808,20.7188L172.656,20.7188L172.656,16.8672L181.189,16.8672L181.488,12.9824L186.004,12.9824Q185.938,14.7422,185.771,16.8672L194.902,16.8672ZM207.188,13.3477L218.178,13.3477L218.178,8.79883L204.531,8.79883L204.531,4.54883L218.178,4.54883L218.178,0.464844L222.826,0.464844L222.826,4.54883L236.473,4.54883L236.473,8.79883L222.826,8.79883L222.826,13.3477L233.816,13.3477L233.816,17.5312L207.188,17.5312L207.188,13.3477ZM220.535,17.7969Q223.357,20.3867,225.482,22.7109L222.029,25.6328Q219.871,22.9102,217.447,20.3867L220.535,17.7969ZM233.949,19.9883Q236.207,25.334,237.17,28.0898L232.887,29.7168Q231.691,25.998,229.799,21.5488L233.949,19.9883ZM206.889,20.1211L211.039,21.3828Q209.146,27.1934,207.818,30.5801L203.768,28.7871Q205.295,25.3672,206.889,20.1211ZM226.047,23.541Q228.57,24.7031,230.695,25.5664Q229.467,30.6797,227.749,31.5596Q226.03,32.4395,224.021,32.4395L216.982,32.4395Q211.902,32.4395,211.902,27.459L211.902,20.1875L216.352,20.1875L216.352,26.3301Q216.352,28.3887,218.377,28.3887L222.627,28.3887Q223.822,28.3887,224.486,28.0317Q225.15,27.6748,225.366,27.0688Q225.582,26.4629,226.047,23.541ZM247.098,6.57422L253.356,6.57422L253.788,4.84766L244.973,4.84766L244.973,16.8672Q244.973,26.8281,241.021,33.3027Q238.631,30.082,238,29.3516Q240.623,24.8691,240.59,17.0664L240.59,1.39453L270.473,1.39453L270.473,4.84766L258.47,4.84766L257.889,6.57422L268.68,6.57422L268.68,16.8008L263.716,16.8008Q267.136,18.3945,270.838,20.4863L268.646,23.6738Q265.459,21.6484,261.475,19.623L263.434,16.8008L260.645,16.8008L260.645,19.8223Q260.645,22.1299,258.835,22.7773Q259.582,23.7236,260.445,24.9023L257.258,27.2266Q255.996,25.0352,254.602,23.126Q253.838,23.1426,253.273,23.1426Q253.008,22.0469,252.443,20.2373Q250.069,21.7148,247.33,23.2422Q246.732,22.2461,245.205,20.2539Q248.625,18.793,251.198,16.8008L247.098,16.8008L247.098,6.57422ZM264.562,9.23047L251.215,9.23047L251.215,10.625L264.562,10.625L264.562,9.23047ZM264.562,14.1445L264.562,12.75L251.215,12.75L251.215,14.1445L264.562,14.1445ZM256.494,16.8008L252.344,16.8008L254.402,18.959Q253.705,19.4238,252.991,19.8721Q253.838,19.9385,254.685,19.9385Q255.813,19.9385,256.154,19.6978Q256.494,19.457,256.494,18.7598L256.494,16.8008ZM267.584,23.0762Q269.609,26.2969,271.17,29.2852L267.65,31.2109Q266.389,28.3887,264.197,24.7031L267.584,23.0762ZM245.836,23.6074L249.654,24.5039Q248.592,28.8535,247.496,31.9082L243.877,30.6465Q245.139,27.459,245.836,23.6074ZM261.176,24.5039Q263.533,26.0645,264.994,26.7285Q264.048,30.5635,262.687,31.5679Q261.325,32.5723,259.051,32.5723L254.436,32.5723Q250.285,32.5723,250.285,28.7871L250.285,23.7402L254.336,23.7402L254.336,27.3594Q254.336,29.0527,256.229,29.0527L257.855,29.0527Q259.482,29.0527,260.18,28.314Q260.877,27.5752,261.176,24.5039ZM272.299,9.46289L283.721,9.46289L283.721,6.93945L274.988,6.93945L274.988,3.02148L283.721,3.02148L283.721,0.0664062L288.236,0.0664062L288.236,3.02148L296.205,3.02148L296.205,6.65723Q298.496,4.39941,300.555,1.75977L303.908,4.31641Q301.551,7.12207,298.978,9.46289L305.104,9.46289L305.104,13.3809L294.03,13.3809Q292.005,14.7754,289.847,15.9043L301.451,15.9043L301.451,33.0039L296.936,33.0039L296.936,31.6094L281.43,31.6094L281.43,33.0039L276.914,33.0039L276.914,21.0176Q275.204,21.5488,273.395,22.0469Q272.93,20.2539,272.033,17.8965Q281.164,16.2363,287.024,13.3809L272.299,13.3809L272.299,9.46289ZM295.906,6.93945L288.236,6.93945L288.236,9.46289L293.051,9.46289Q294.528,8.26758,295.906,6.93945ZM296.936,19.623L281.43,19.623L281.43,21.9473L296.936,21.9473L296.936,19.623ZM281.43,27.8906L296.936,27.8906L296.936,25.5664L281.43,25.5664L281.43,27.8906ZM306.797,6.77344L309.387,6.77344Q308.507,4.99707,307.029,2.98828L310.018,1.12891Q311.047,2.35742,312.807,4.98047L309.818,6.77344L313.537,6.77344L313.537,0.265625L317.754,0.265625L317.754,6.77344L321.24,6.77344L318.484,4.98047Q320.145,2.95508,321.273,1.0293L324.395,2.88867Q323.282,4.78125,321.639,6.77344L323.564,6.77344L323.564,10.1602L317.754,10.1602L317.754,12.4844L318.883,10.957Q320.958,12.0693,322.817,13.1484Q325.54,8.10156,327.516,0.0996094L332.064,0.53125Q331.4,3.10449,330.653,5.44531L338.971,5.44531L338.971,9.49609L337.626,9.49609Q336.912,18.2949,333.891,23.9561Q336.016,26.4297,339.104,28.2227Q337.908,29.584,336.215,32.6387Q333.31,30.6963,331.185,27.9238Q328.445,31.1445,324.826,33.1367Q323.481,31.2275,321.854,29.5508L320.676,31.5098Q318.684,30.3643,316.326,29.1855Q312.69,31.6094,307.627,32.6387Q307.029,30.8125,305.867,28.5547Q309.337,28.1895,311.977,27.1602Q309.686,26.1475,307.129,25.1016Q308.258,23.458,309.154,21.8145L306.432,21.8145L306.432,18.4277L310.798,18.4277Q311.346,17.1162,311.744,15.8047L313.537,15.9707L313.537,12.7832Q311.08,15.373,307.361,17.5977Q306.664,15.373,305.801,13.6133Q309.104,12.335,311.761,10.1602L306.797,10.1602L306.797,6.77344ZM328.877,10.4424Q329.541,15.9707,331.201,19.6895Q333.177,15.3398,333.559,9.49609L329.242,9.49609Q329.076,9.97754,328.877,10.4424ZM317.754,16.7344L316.077,16.7344Q315.695,17.5479,315.23,18.4277L322.967,18.4277L322.967,21.5156Q321.672,24.2217,319.729,26.3135L323.033,27.625L322.369,28.7041Q326.038,26.7949,328.628,23.7568Q327.001,20.4199,326.138,16.2861Q325.557,17.332,324.959,18.2949Q324.195,16.9668,323.183,15.5557L322.203,17.0332Q320.145,15.6387,317.754,14.2109L317.754,16.7344ZM312.441,23.541L315.895,24.8359Q317.389,23.541,318.352,21.8145L313.421,21.8145L312.441,23.541ZM372.971,18.3281L365.4,18.3281L365.4,21.1172L370.979,21.1172L370.979,33.0371L367.061,33.0371L367.061,31.377L359.656,31.377L359.656,33.0371L355.738,33.0371L355.738,21.1172L361.217,21.1172L361.217,18.3281L355.406,18.3281Q354.809,27.4258,351.156,32.7715Q349.762,30.9453,348.168,29.3848Q351.488,23.5742,351.488,13.6133L351.488,1.49414L371.576,1.49414L371.576,11.8867L365.4,11.8867L365.4,14.8418L372.971,14.8418L372.971,18.3281ZM340.432,6.47461L343.586,6.47461L343.586,0.597656L347.604,0.597656L347.604,6.47461L350.459,6.47461L350.459,10.7246L347.604,10.7246L347.604,15.373Q349.031,15.0742,350.625,14.6758Q350.459,17.332,350.492,18.9922Q349.031,19.3574,347.604,19.7227L347.604,28.8203Q347.604,32.5059,344.582,32.6055Q342.822,32.7715,341.195,32.7051Q340.863,30.7461,340.232,28.3887Q341.328,28.4219,342.457,28.4551Q343.586,28.4883,343.586,26.8613L343.586,20.752Q341.992,21.1836,340.398,21.582L340.033,17Q341.527,16.7012,343.586,16.2695L343.586,10.7246L340.432,10.7246L340.432,6.47461ZM367.492,8.40039L367.492,4.98047L355.539,4.98047L355.539,8.40039L367.492,8.40039ZM367.061,24.6035L359.656,24.6035L359.656,27.8906L367.061,27.8906L367.061,24.6035ZM361.217,14.8418L361.217,11.8867L355.539,11.8867L355.539,14.8418L361.217,14.8418ZM388.809,0.863281L394.254,0.265625Q394.719,1.42773,395.366,3.2207L406.639,3.2207L406.639,7.07227L381.139,7.07227L381.139,15.0742Q381.139,27.2266,377.154,33.1035Q375.494,30.9121,373.801,29.1191Q376.689,24.3711,376.623,15.041L376.623,3.2207L389.904,3.2207L388.809,0.863281ZM380.873,24.0391L392.494,24.0391L392.494,21.7148L382.898,21.7148L382.898,17.9297Q384.127,15.9375,385.322,13.7793L381.936,13.7793L381.936,9.92773L387.364,9.92773Q388.062,8.56641,388.742,7.13867L393.357,7.83594L392.262,9.92773L405.809,9.92773L405.809,13.7793L390.187,13.7793L387.846,17.9297L392.494,17.9297L392.494,14.8086L396.943,14.8086L396.943,17.9297L405.277,17.9297L405.277,21.7148L396.943,21.7148L396.943,24.0391L406.838,24.0391L406.838,27.8906L396.943,27.8906L396.943,32.7383L392.494,32.7383L392.494,27.8906L380.873,27.8906L380.873,24.0391ZM415.006,12.7832Q416.932,12.7832,418.31,14.1611Q419.688,15.5391,419.688,17.4648Q419.688,19.4072,418.31,20.7769Q416.932,22.1465,415.006,22.1465Q413.063,22.1465,411.694,20.7769Q410.324,19.4072,410.324,17.4648Q410.324,15.5391,411.694,14.1611Q413.063,12.7832,415.006,12.7832ZM426.793,33.0039L426.793,18.1953Q426.245,18.4277,425.664,18.6602Q424.436,16.9004,423.174,15.5723Q428.254,13.5801,429.433,11.2559L423.473,11.2559L423.473,8.00195L425.531,8.00195Q424.535,6.4248,423.572,5.24609Q425.365,3.51953,427.191,0.0996094L431.475,0.0996094Q430.927,1.32812,430.329,2.42383L439.609,2.42383L439.609,5.71094L434.978,5.71094Q434.895,6.92285,434.712,8.00195L440.605,8.00195L440.605,11.2559L435.442,11.2559L440.174,14.4102L438.016,16.8672L452.227,16.8672L452.227,33.0039L447.777,33.0039L447.777,31.543L431.242,31.543L431.242,33.0039L426.793,33.0039ZM426.262,8.00195L430.445,8.00195Q430.611,6.97266,430.678,5.71094L428.271,5.71094Q427.308,6.98926,426.262,8.00195ZM429.3,16.8672L436.92,16.8672Q434.812,14.8916,433.019,13.3643Q431.773,15.3232,429.3,16.8672ZM447.777,20.3535L431.242,20.3535L431.242,22.6777L447.777,22.6777L447.777,20.3535ZM431.242,28.0566L447.777,28.0566L447.777,25.8984L431.242,25.8984L431.242,28.0566ZM441.137,2.55664L454.385,2.55664L454.385,14.9746L441.137,14.9746L441.137,2.55664ZM450.268,11.4551L450.268,6.07617L445.254,6.07617L445.254,11.4551L450.268,11.4551ZM458.004,18.3281L466.969,18.3281Q467.566,17.6641,468.064,16.9668L460.826,16.9668L460.826,7.17188L486.127,7.17188L486.127,16.9668L472.547,16.9668Q472.049,17.6641,471.551,18.3281L488.982,18.3281L488.982,21.5156L482.773,21.5156Q486.426,23.9395,489.945,24.5039Q489.082,26.3633,488.086,28.5215Q485.363,27.4258,482.84,25.5996Q482.84,27.127,482.773,28.6875Q482.641,32.5391,478.158,32.7051Q476.332,32.7051,473.609,32.6719Q473.211,30.2148,473.012,29.1855Q475.934,29.3184,477.328,29.3184Q478.523,29.3516,478.623,28.5879Q478.723,27.6582,478.789,26.6289L471.982,26.6289Q469.791,31.5762,463.416,33.1699Q462.52,31.4102,461.059,29.5508Q465.441,29.0195,467.367,26.6289L463.98,26.6289L463.98,25.4004Q461.59,26.9609,458.9,28.0898Q457.771,25.7324,456.809,24.4707Q460.428,23.2754,463.184,21.5156L458.004,21.5156L458.004,18.3281ZM457.938,2.125L466.238,2.125L466.238,0.498047L470.688,0.498047L470.688,2.125L476.332,2.125L476.332,0.498047L480.781,0.498047L480.781,2.125L489.281,2.125L489.281,5.3125L480.781,5.3125L480.781,6.50781L476.332,6.50781L476.332,5.3125L470.688,5.3125L470.688,6.50781L466.238,6.50781L466.238,5.3125L457.938,5.3125L457.938,2.125ZM481.678,9.72852L465.275,9.72852L465.275,11.0566L481.678,11.0566L481.678,9.72852ZM465.275,14.4102L481.678,14.4102L481.678,13.082L465.275,13.082L465.275,14.4102ZM468.828,22.1797L473.078,22.1797Q473.012,22.9102,472.879,23.5742L480.35,23.5742Q479.287,22.6113,478.258,21.5156L468.729,21.5156Q467.633,22.6113,466.438,23.5742L468.662,23.5742Q468.795,22.9102,468.828,22.1797ZM495.324,0.199219Q498.18,3.65234,499.939,6.27539L496.021,8.86523Q493.797,5.3125,491.738,2.55664L495.324,0.199219ZM522.053,1.39453L522.053,5.21289L515.146,9.03125L522.086,9.03125L522.086,23.3418Q522.086,24.9189,521.463,25.832Q520.841,26.7451,519.712,27.0273Q518.583,27.3096,514.748,27.2598Q514.449,25.7656,513.885,23.8398Q515.479,23.9395,516.508,23.9395Q517.902,23.9395,517.902,22.4785L517.902,21.9141L513.42,21.9141L513.42,26.8945L509.436,26.8945L509.436,21.9141L505.086,21.9141L505.086,26.9277L500.902,26.9277L500.902,9.03125L507.211,9.03125L503.625,6.80664L505.318,4.84766L500.637,4.84766L500.637,1.39453L522.053,1.39453ZM516.309,4.84766L506.547,4.84766Q508.605,6.02637,511.195,7.58691L516.309,4.84766ZM517.902,12.0195L513.42,12.0195L513.42,14.0449L517.902,14.0449L517.902,12.0195ZM505.086,14.0449L509.436,14.0449L509.436,12.0195L505.086,12.0195L505.086,14.0449ZM513.42,18.9922L517.902,18.9922L517.902,16.9668L513.42,16.9668L513.42,18.9922ZM505.086,18.9922L509.436,18.9922L509.436,16.9668L505.086,16.9668L505.086,18.9922ZM524.012,28.1562Q522.982,30.7129,522.385,32.4395L504.92,32.3066Q501.815,32.2236,499.823,31.3853Q497.831,30.5469,496.52,29.0527L492.9,33.2031L490.975,28.0566L494.162,25.334L494.162,16.2363L491.207,16.2363L491.207,11.8535L498.312,11.8535L498.312,25.4336Q500.288,28.1895,505.352,28.1895L512.872,28.2891Q517.803,28.2891,524.012,28.1562ZM552.085,34.2822Q546.025,27.5254,546.025,18.5107Q546.025,9.29688,552.118,2.80566L556.534,2.80566Q550.624,9.89453,550.624,18.4775Q550.624,27.0938,556.501,34.2822L552.085,34.2822ZM583.761,28.5049L577.784,28.5049L575.858,22.6113L566.512,22.6113L564.619,28.5049L558.676,28.5049L568.089,2.78906L574.53,2.78906L583.761,28.5049ZM574.563,18.3779L571.642,9.46289Q571.359,8.61621,571.243,7.22168L571.094,7.22168Q570.994,8.35059,570.646,9.39648L567.707,18.3779L574.563,18.3779ZM592.477,2.78906L592.477,28.5049L586.998,28.5049L586.998,2.78906L592.477,2.78906ZM621.961,28.5049L621.961,12.8994Q621.961,10.7412,622.177,7.4707L622.044,7.4707Q621.546,9.94434,621.247,10.7744L614.905,28.5049L610.539,28.5049L604.114,10.9404Q603.882,10.3096,603.301,7.4707L603.151,7.4707Q603.367,10.708,603.367,13.9619L603.367,28.5049L598.42,28.5049L598.42,2.78906L606.389,2.78906L611.934,18.3281Q612.631,20.2539,612.88,21.9473L612.996,21.9473Q613.511,19.8389,614.059,18.2949L619.62,2.78906L627.373,2.78906L627.373,28.5049L621.961,28.5049ZM633.3,11.2559Q634.545,10.5586,636.628,10.127Q638.712,9.69531,640.189,9.69531Q647.893,9.69531,647.893,17.415L647.893,28.5049L642.796,28.5049L642.796,25.832L642.729,25.832Q640.854,28.9531,637.234,28.9531Q634.628,28.9531,633.059,27.4673Q631.49,25.9814,631.49,23.4248Q631.49,18.1455,637.782,17.2822L642.829,16.6016Q642.829,13.3975,639.492,13.3975Q636.205,13.3975,633.3,15.3896L633.3,11.2559ZM639.359,20.1875Q636.454,20.5693,636.454,22.8105Q636.454,23.8398,637.16,24.4707Q637.865,25.1016,639.061,25.1016Q640.704,25.1016,641.767,23.9395Q642.829,22.7773,642.829,21.0508L642.829,19.7393L639.359,20.1875ZM663.299,28.2891Q662.087,28.9531,659.63,28.9531Q653.786,28.9531,653.786,22.8105L653.786,14.1445L650.765,14.1445L650.765,10.1436L653.786,10.1436L653.786,6.10938L659.115,4.58203L659.115,10.1436L663.299,10.1436L663.299,14.1445L659.115,14.1445L659.115,21.8809Q659.115,24.8193,661.439,24.8193Q662.336,24.8193,663.299,24.2881L663.299,28.2891ZM680.332,27.8242Q678.406,28.9531,674.854,28.9531Q670.653,28.9531,668.063,26.3965Q665.474,23.8398,665.474,19.7725Q665.474,15.0908,668.263,12.3931Q671.052,9.69531,675.7,9.69531Q678.838,9.69531,680.349,10.5586L680.349,15.1572Q678.506,13.8125,676.331,13.8125Q673.874,13.8125,672.388,15.3066Q670.902,16.8008,670.902,19.4072Q670.902,21.9307,672.313,23.3833Q673.725,24.8359,676.148,24.8359Q678.29,24.8359,680.332,23.4746L680.332,27.8242ZM701.482,28.5049L696.137,28.5049L696.137,18.0459Q696.137,13.8125,693.049,13.8125Q691.505,13.8125,690.5,14.9912Q689.496,16.1699,689.496,18.0459L689.496,28.5049L684.134,28.5049L684.134,1.32812L689.496,1.32812L689.496,12.8994L689.562,12.8994Q691.671,9.69531,695.24,9.69531Q701.482,9.69531,701.482,17.2324L701.482,28.5049ZM725.272,19.7227L718.333,19.7227L718.333,26.6621L714.847,26.6621L714.847,19.7227L707.874,19.7227L707.874,16.2197L714.847,16.2197L714.847,9.24707L718.333,9.24707L718.333,16.2197L725.272,16.2197L725.272,19.7227ZM735.848,34.2822L731.432,34.2822Q737.342,27.2432,737.342,18.6104Q737.342,10.0273,731.465,2.80566L735.881,2.80566Q741.94,9.5293,741.94,18.6104Q741.94,27.8408,735.848,34.2822Z" fill="#FFFFFF" fill-opacity="1"/></g></svg>