<svg xmlns="http://www.w3.org/2000/svg" xmlns:xlink="http://www.w3.org/1999/xlink" fill="none" version="1.1" width="15.000000990778062" height="19.00000078219182" viewBox="0 0 15.000000990778062 19.00000078219182"><g transform="matrix(-1,-5.2146120310681e-8,5.2146120310681e-8,-1,29.99999900922367,38.00000234657544)"><path d="M22.50044,27.38496078219182C22.35912,27.38496078219182,22.24506,27.27103078219182,22.24506,27.12986078219182L22.2443,19.948676782191818C22.2443,19.807505782191818,22.35954,19.69347078219182,22.50087,19.69347078219182C22.6422,19.69347078219182,22.75529,19.807505782191818,22.75529,19.948676782191818L22.75583,27.12986078219182C22.75583,27.27103078219182,22.64177,27.38496078219182,22.50044,27.38496078219182ZM25.996499999999997,35.409400782191824L19.0069,35.409400782191824C18.82094,35.409400782191824,18.64986,35.30780078219182,18.5606,35.14690078219182L15.0645759,28.87592078219182C14.9753156,28.71493078219182,14.9777952,28.51680078219182,15.0769731,28.35829078219182L22.06751,19.24282278219182C22.15925,19.09174548219182,22.32483,19.00000078219182,22.50087,19.00000078219182C22.67692,19.00000078219182,22.8425,19.091745382191817,22.93424,19.24282278219182L29.9239,28.36077078219182C30.0206,28.51928078219182,30.0256,28.71493078219182,29.9363,28.87592078219182L26.4403,35.14690078219182C26.3535,35.31030078219182,26.1824,35.409400782191824,25.996499999999997,35.409400782191824ZM19.306910000000002,34.389000782191815L25.6965,34.389000782191815L28.899900000000002,28.64311078219182L22.50303,20.48331078219182L16.10595,28.64311078219182L19.306910000000002,34.389000782191815ZM22.50044,29.65110078219182C21.73429,29.65110078219182,21.10947,29.029500782191818,21.10947,28.261700782191816C21.10947,27.496410782191816,21.73182,26.87228078219182,22.50044,26.87228078219182C23.26659,26.87228078219182,23.89141,27.493930782191818,23.89141,28.261700782191816C23.89141,29.029500782191818,23.26659,29.65110078219182,22.50044,29.65110078219182ZM22.50044,27.38496078219182C22.01695,27.38496078219182,21.62272,27.77875078219182,21.62272,28.261700782191816C21.62272,28.74465078219182,22.01695,29.13840078219182,22.50044,29.13840078219182C22.98394,29.13840078219182,23.37817,28.74465078219182,23.37817,28.261700782191816C23.38065,27.77875078219182,22.98642,27.38496078219182,22.50044,27.38496078219182ZM27.3626,38.00000078219182L17.64072,38.00000078219182C17.35807,38.00000078219182,17.12996,37.77210078219181,17.12996,37.48980078219182L17.12996,34.89920078219182C17.12996,34.61690078219182,17.35807,34.389000782191815,17.64072,34.389000782191815L27.3626,34.389000782191815C27.6453,34.389000782191815,27.8734,34.61690078219182,27.8734,34.89920078219182L27.8734,37.48980078219182C27.8734,37.77210078219181,27.6453,38.00000078219182,27.3626,38.00000078219182ZM18.15149,36.979600782191824L26.8519,36.979600782191824L26.8519,35.41190078219182L18.15149,35.41190078219182L18.15149,36.979600782191824Z" fill="currentColor" style="mix-blend-mode:passthrough"/></g></svg>